<svg preserveAspectRatio="none" width="100%" height="100%" overflow="visible" style="display: block;" viewBox="0 0 138 33" fill="none" xmlns="http://www.w3.org/2000/svg">
<g id="RIZOM">
<path d="M5.24978 24.3876V31.7373H0V0.715879H10.0223C12.4086 0.715879 14.2858 1.43176 15.6539 2.86352C17.0538 4.26346 17.7538 6.01339 17.7538 8.1133C17.7538 9.99049 16.9902 11.7086 15.463 13.2676C17.7538 13.7767 19.5992 15.0494 20.9991 17.0857C22.3991 19.1219 23.099 21.54 23.099 24.3399V31.7373H17.8493V24.8172C17.8493 22.5263 17.2606 20.7287 16.0834 19.4242C14.938 18.1197 13.4108 17.4675 11.5018 17.4675C9.72005 17.4675 8.22466 18.0879 7.01562 19.3287C5.83839 20.5696 5.24978 22.2559 5.24978 24.3876ZM9.11553 5.82249H5.24978V14.7948C5.4725 14.5721 5.72704 14.3494 6.01339 14.1267C6.29974 13.904 6.602 13.6972 6.92017 13.5063C7.27015 13.3154 7.55651 13.1563 7.77922 13.029C8.03376 12.8699 8.36783 12.6949 8.78145 12.504C9.19507 12.2813 9.49733 12.1222 9.68824 12.0268C11.5972 11.0086 12.5518 9.86323 12.5518 8.59055C12.5518 7.7315 12.2495 7.06334 11.645 6.58609C11.0405 6.07702 10.1973 5.82249 9.11553 5.82249Z" fill="var(--fill-0, white)"/>
<path d="M33.3536 0.715879V31.7373H28.1039V0.715879H33.3536Z" fill="var(--fill-0, white)"/>
<path d="M61.3617 0.715879L46.71 26.5353H61.5049V31.7373H37.6422L52.3416 5.91794H39.3603V0.715879H61.3617Z" fill="var(--fill-0, white)"/>
<path d="M79.0133 32.4055C74.5908 32.4055 70.8205 30.8305 67.7024 27.6807C64.6162 24.5308 63.0731 20.6969 63.0731 16.1789C63.0731 11.7245 64.6162 7.9224 67.7024 4.77253C70.8205 1.59084 74.5908 0 79.0133 0C83.4359 0 87.2062 1.59084 90.3242 4.77253C93.4741 7.9224 95.049 11.7245 95.049 16.1789C95.049 20.6969 93.49 24.5308 90.3719 27.6807C87.2539 30.8305 83.4677 32.4055 79.0133 32.4055ZM79.0133 27.0125C81.9723 27.0125 84.4699 25.9626 86.5062 23.8626C88.5743 21.7627 89.6083 19.2015 89.6083 16.1789C89.6083 13.1881 88.5743 10.6586 86.5062 8.59055C84.4699 6.49064 81.9723 5.44068 79.0133 5.44068C76.0862 5.44068 73.6045 6.49064 71.5682 8.59055C69.5319 10.6586 68.5138 13.1881 68.5138 16.1789C68.5138 19.2015 69.5319 21.7627 71.5682 23.8626C73.6045 25.9626 76.0862 27.0125 79.0133 27.0125Z" fill="var(--fill-0, white)"/>
<path d="M126.682 0C129.545 0 132.011 1.04996 134.079 3.14987C136.147 5.21796 137.182 7.82695 137.182 10.9768V31.6896H131.932V10.7859C131.932 9.29052 131.423 8.01785 130.405 6.96789C129.386 5.91794 128.146 5.39296 126.682 5.39296C125.25 5.39296 124.025 5.90203 123.007 6.92017C121.989 7.93831 121.48 9.14735 121.48 10.5473V31.7373H116.182L116.23 10.5473C116.23 9.17917 115.705 7.98603 114.655 6.96789C113.605 5.91794 112.364 5.39296 110.933 5.39296C109.437 5.39296 108.165 5.91794 107.115 6.96789C106.065 8.01785 105.54 9.29052 105.54 10.7859V31.7373H100.338L100.29 10.9768C100.29 7.82695 101.324 5.21796 103.392 3.14987C105.492 1.04996 108.005 0 110.933 0C114.146 0 116.771 1.24086 118.807 3.72257C120.844 1.24086 123.468 0 126.682 0Z" fill="var(--fill-0, white)"/>
</g>
</svg>
