<svg preserveAspectRatio="none" width="100%" height="100%" overflow="visible" style="display: block;" viewBox="0 0 60 59" fill="none" xmlns="http://www.w3.org/2000/svg">
<g id="Group">
<path id="Vector" d="M29.8235 22.1142C31.7219 22.1142 33.5065 22.8336 34.8489 24.1412C36.1913 25.4481 36.9309 27.1856 36.9309 29.0338C36.9309 30.882 36.192 32.6195 34.8489 33.9265C33.5065 35.2334 31.7219 35.9535 29.8235 35.9535C27.9251 35.9535 26.1405 35.234 24.7981 33.9265C23.4557 32.6189 22.7167 30.882 22.7167 29.0338C22.7167 27.1856 23.4557 25.4481 24.7981 24.1412C26.1405 22.8342 27.9251 22.1142 29.8235 22.1142ZM29.8235 17.1881C23.104 17.1881 17.6562 22.4918 17.6562 29.0338C17.6562 35.5758 23.104 40.8796 29.8235 40.8796C36.543 40.8796 41.9907 35.5758 41.9907 29.0338C41.9907 22.4918 36.543 17.1881 29.8235 17.1881Z" fill="var(--fill-0, white)"/>
<g id="Group_2">
<path id="Vector_2" d="M13.2469 29.0338C13.2469 33.2709 14.9323 37.1315 17.6846 40.0136C11.8265 39.6006 7.20517 34.8424 7.20517 29.0338C7.20517 23.2253 11.8265 18.4671 17.6846 18.0541C14.9323 20.9362 13.2469 24.798 13.2469 29.0338Z" fill="var(--fill-0, white)"/>
<path id="Vector_3" d="M52.4385 29.0338C52.4385 34.8424 47.8172 39.6006 41.9591 40.0136C44.7114 37.1315 46.3967 33.2709 46.3967 29.0338C46.3967 24.7968 44.7114 20.9362 41.9591 18.0541C47.8172 18.4671 52.4385 23.2253 52.4385 29.0338Z" fill="var(--fill-0, white)"/>
<g id="Group_3">
<path id="Vector_4" d="M59.7265 29.0338C59.7265 32.172 57.6563 34.84 54.7735 35.8142C56.0553 31.4628 56.056 26.6042 54.7735 22.2535C57.6563 23.2277 59.7265 25.8957 59.7265 29.0338Z" fill="var(--fill-0, white)"/>
<path id="Vector_5" d="M3.97003 30.5734C4.08122 32.3778 4.3873 34.1312 4.86955 35.8139C-1.62448 33.824 -1.62136 24.2431 4.86955 22.2544C4.17929 24.8932 3.65582 27.8106 3.97003 30.5734Z" fill="var(--fill-0, white)"/>
</g>
<path id="Vector_6" d="M41.0996 40.8504C40.6754 46.5537 35.788 51.0529 29.8218 51.0529C23.8557 51.0529 18.9683 46.5537 18.5441 40.8504C21.5044 43.5299 25.471 45.1708 29.8218 45.1708C34.1726 45.1708 38.1393 43.5299 41.0996 40.8504Z" fill="var(--fill-0, white)"/>
<path id="Vector_7" d="M41.0996 17.2173C38.1393 14.5377 34.1739 12.8969 29.8218 12.8969C25.4698 12.8969 21.5044 14.5377 18.5441 17.2173C18.9683 11.514 23.8557 7.01479 29.8218 7.01479C35.788 7.01479 40.6754 11.514 41.0996 17.2173Z" fill="var(--fill-0, white)"/>
<g id="Group_4">
<path id="Vector_8" d="M36.7862 53.3262C34.7417 59.6493 24.9007 59.6462 22.8574 53.3262C27.3257 54.5742 32.318 54.5742 36.7862 53.3262Z" fill="var(--fill-0, white)"/>
<path id="Vector_9" d="M36.7862 4.74088C32.318 3.49294 27.3257 3.49294 22.8574 4.74088C24.902 -1.58155 34.743 -1.57851 36.7862 4.74088Z" fill="var(--fill-0, white)"/>
</g>
</g>
</g>
</svg>
