<svg xmlns="http://www.w3.org/2000/svg" viewBox="0 0 800 600"><rect width="800" height="600" fill="#0d0a1a"/><defs><radialGradient id="heroAmb1"><stop offset="0%" stop-color="rgba(232,119,34,0.08)"/><stop offset="60%" stop-color="rgba(140,100,200,0.04)"/><stop offset="100%" stop-color="rgba(0,0,0,0)"/></radialGradient><radialGradient id="heroAmb2"><stop offset="0%" stop-color="rgba(232,119,34,0.06)"/><stop offset="100%" stop-color="rgba(0,0,0,0)"/></radialGradient></defs><circle cx="550" cy="280" r="250" fill="url(#heroAmb1)"/><circle cx="650" cy="350" r="150" fill="url(#heroAmb2)"/><path d="M351,204 Q413,252 442,320" stroke="rgba(232,119,34,0.033)" stroke-width="6" fill="none" stroke-linecap="round"/><path d="M351,204 Q413,252 442,320" stroke="rgba(232,119,34,0.112)" stroke-width="0.8" fill="none" stroke-linecap="round"/><path d="M351,204 Q443,227 549,227" stroke="rgba(232,119,34,0.022)" stroke-width="6" fill="none" stroke-linecap="round"/><path d="M351,204 Q443,227 549,227" stroke="rgba(232,119,34,0.072)" stroke-width="0.8" fill="none" stroke-linecap="round"/><path d="M351,204 Q442,240 513,305" stroke="rgba(232,119,34,0.046)" stroke-width="6" fill="none" stroke-linecap="round"/><path d="M351,204 Q442,240 513,305" stroke="rgba(232,119,34,0.154)" stroke-width="0.8" fill="none" stroke-linecap="round"/><path d="M351,204 Q408,272 471,319" stroke="rgba(232,119,34,0.049)" stroke-width="6" fill="none" stroke-linecap="round"/><path d="M351,204 Q408,272 471,319" stroke="rgba(232,119,34,0.162)" stroke-width="0.8" fill="none" stroke-linecap="round"/><path d="M351,204 Q427,248 471,316" stroke="rgba(232,119,34,0.023)" stroke-width="6" fill="none" stroke-linecap="round"/><path d="M351,204 Q427,248 471,316" stroke="rgba(232,119,34,0.076)" stroke-width="0.8" fill="none" stroke-linecap="round"/><path d="M571,446 Q481,479 427,507" stroke="rgba(232,119,34,0.050)" stroke-width="6" fill="none" stroke-linecap="round"/><path d="M571,446 Q481,479 427,507" stroke="rgba(232,119,34,0.168)" stroke-width="0.8" fill="none" stroke-linecap="round"/><path d="M571,446 Q548,392 513,305" stroke="rgba(232,119,34,0.046)" stroke-width="6" fill="none" stroke-linecap="round"/><path d="M571,446 Q548,392 513,305" stroke="rgba(232,119,34,0.154)" stroke-width="0.8" fill="none" stroke-linecap="round"/><path d="M571,446 Q530,387 471,316" stroke="rgba(232,119,34,0.023)" stroke-width="6" fill="none" stroke-linecap="round"/><path d="M571,446 Q530,387 471,316" stroke="rgba(232,119,34,0.076)" stroke-width="0.8" fill="none" stroke-linecap="round"/><path d="M571,446 Q514,411 480,400" stroke="rgba(232,119,34,0.050)" stroke-width="6" fill="none" stroke-linecap="round"/><path d="M571,446 Q514,411 480,400" stroke="rgba(232,119,34,0.168)" stroke-width="0.8" fill="none" stroke-linecap="round"/><path d="M694,519 Q625,545 572,541" stroke="rgba(232,119,34,0.031)" stroke-width="6" fill="none" stroke-linecap="round"/><path d="M694,519 Q625,545 572,541" stroke="rgba(232,119,34,0.102)" stroke-width="0.8" fill="none" stroke-linecap="round"/><path d="M427,507 Q438,411 442,320" stroke="rgba(232,119,34,0.033)" stroke-width="6" fill="none" stroke-linecap="round"/><path d="M427,507 Q438,411 442,320" stroke="rgba(232,119,34,0.112)" stroke-width="0.8" fill="none" stroke-linecap="round"/><path d="M427,507 Q459,406 471,319" stroke="rgba(232,119,34,0.057)" stroke-width="6" fill="none" stroke-linecap="round"/><path d="M427,507 Q459,406 471,319" stroke="rgba(232,119,34,0.192)" stroke-width="0.8" fill="none" stroke-linecap="round"/><path d="M427,507 Q504,540 572,541" stroke="rgba(232,119,34,0.031)" stroke-width="6" fill="none" stroke-linecap="round"/><path d="M427,507 Q504,540 572,541" stroke="rgba(232,119,34,0.102)" stroke-width="0.8" fill="none" stroke-linecap="round"/><path d="M427,507 Q432,418 471,316" stroke="rgba(232,119,34,0.023)" stroke-width="6" fill="none" stroke-linecap="round"/><path d="M427,507 Q432,418 471,316" stroke="rgba(232,119,34,0.076)" stroke-width="0.8" fill="none" stroke-linecap="round"/><path d="M427,507 Q439,472 480,400" stroke="rgba(232,119,34,0.051)" stroke-width="6" fill="none" stroke-linecap="round"/><path d="M427,507 Q439,472 480,400" stroke="rgba(232,119,34,0.170)" stroke-width="0.8" fill="none" stroke-linecap="round"/><path d="M442,320 Q514,276 549,227" stroke="rgba(232,119,34,0.022)" stroke-width="6" fill="none" stroke-linecap="round"/><path d="M442,320 Q514,276 549,227" stroke="rgba(232,119,34,0.072)" stroke-width="0.8" fill="none" stroke-linecap="round"/><path d="M442,320 Q426,269 443,243" stroke="rgba(232,119,34,0.033)" stroke-width="6" fill="none" stroke-linecap="round"/><path d="M442,320 Q426,269 443,243" stroke="rgba(232,119,34,0.112)" stroke-width="0.8" fill="none" stroke-linecap="round"/><path d="M442,320 Q440,259 430,169" stroke="rgba(232,119,34,0.033)" stroke-width="6" fill="none" stroke-linecap="round"/><path d="M442,320 Q440,259 430,169" stroke="rgba(232,119,34,0.112)" stroke-width="0.8" fill="none" stroke-linecap="round"/><path d="M442,320 Q513,311 546,296" stroke="rgba(232,119,34,0.033)" stroke-width="6" fill="none" stroke-linecap="round"/><path d="M442,320 Q513,311 546,296" stroke="rgba(232,119,34,0.112)" stroke-width="0.8" fill="none" stroke-linecap="round"/><path d="M442,320 Q489,256 561,191" stroke="rgba(232,119,34,0.021)" stroke-width="6" fill="none" stroke-linecap="round"/><path d="M442,320 Q489,256 561,191" stroke="rgba(232,119,34,0.069)" stroke-width="0.8" fill="none" stroke-linecap="round"/><path d="M442,320 Q474,295 513,305" stroke="rgba(232,119,34,0.033)" stroke-width="6" fill="none" stroke-linecap="round"/><path d="M442,320 Q474,295 513,305" stroke="rgba(232,119,34,0.112)" stroke-width="0.8" fill="none" stroke-linecap="round"/><path d="M442,320 Q474,318 471,316" stroke="rgba(232,119,34,0.023)" stroke-width="6" fill="none" stroke-linecap="round"/><path d="M442,320 Q474,318 471,316" stroke="rgba(232,119,34,0.076)" stroke-width="0.8" fill="none" stroke-linecap="round"/><path d="M442,320 Q481,266 550,250" stroke="rgba(232,119,34,0.033)" stroke-width="6" fill="none" stroke-linecap="round"/><path d="M442,320 Q481,266 550,250" stroke="rgba(232,119,34,0.112)" stroke-width="0.8" fill="none" stroke-linecap="round"/><path d="M549,227 Q496,208 430,169" stroke="rgba(232,119,34,0.022)" stroke-width="6" fill="none" stroke-linecap="round"/><path d="M549,227 Q496,208 430,169" stroke="rgba(232,119,34,0.072)" stroke-width="0.8" fill="none" stroke-linecap="round"/><path d="M549,227 Q567,259 546,296" stroke="rgba(232,119,34,0.022)" stroke-width="6" fill="none" stroke-linecap="round"/><path d="M549,227 Q567,259 546,296" stroke="rgba(232,119,34,0.072)" stroke-width="0.8" fill="none" stroke-linecap="round"/><path d="M549,227 Q567,198 561,191" stroke="rgba(232,119,34,0.021)" stroke-width="6" fill="none" stroke-linecap="round"/><path d="M549,227 Q567,198 561,191" stroke="rgba(232,119,34,0.069)" stroke-width="0.8" fill="none" stroke-linecap="round"/><path d="M549,227 Q524,287 471,319" stroke="rgba(232,119,34,0.022)" stroke-width="6" fill="none" stroke-linecap="round"/><path d="M549,227 Q524,287 471,319" stroke="rgba(232,119,34,0.072)" stroke-width="0.8" fill="none" stroke-linecap="round"/><path d="M549,227 Q548,202 567,191" stroke="rgba(232,119,34,0.022)" stroke-width="6" fill="none" stroke-linecap="round"/><path d="M549,227 Q548,202 567,191" stroke="rgba(232,119,34,0.072)" stroke-width="0.8" fill="none" stroke-linecap="round"/><path d="M549,227 Q513,263 471,316" stroke="rgba(232,119,34,0.022)" stroke-width="6" fill="none" stroke-linecap="round"/><path d="M549,227 Q513,263 471,316" stroke="rgba(232,119,34,0.072)" stroke-width="0.8" fill="none" stroke-linecap="round"/><path d="M549,227 Q556,246 550,250" stroke="rgba(232,119,34,0.022)" stroke-width="6" fill="none" stroke-linecap="round"/><path d="M549,227 Q556,246 550,250" stroke="rgba(232,119,34,0.072)" stroke-width="0.8" fill="none" stroke-linecap="round"/><path d="M549,227 Q591,285 650,350" stroke="rgba(232,119,34,0.022)" stroke-width="6" fill="none" stroke-linecap="round"/><path d="M549,227 Q591,285 650,350" stroke="rgba(232,119,34,0.072)" stroke-width="0.8" fill="none" stroke-linecap="round"/><path d="M549,227 Q497,303 480,400" stroke="rgba(232,119,34,0.022)" stroke-width="6" fill="none" stroke-linecap="round"/><path d="M549,227 Q497,303 480,400" stroke="rgba(232,119,34,0.072)" stroke-width="0.8" fill="none" stroke-linecap="round"/><path d="M443,243 Q492,258 546,296" stroke="rgba(232,119,34,0.045)" stroke-width="6" fill="none" stroke-linecap="round"/><path d="M443,243 Q492,258 546,296" stroke="rgba(232,119,34,0.151)" stroke-width="0.8" fill="none" stroke-linecap="round"/><path d="M443,243 Q459,279 513,305" stroke="rgba(232,119,34,0.046)" stroke-width="6" fill="none" stroke-linecap="round"/><path d="M443,243 Q459,279 513,305" stroke="rgba(232,119,34,0.154)" stroke-width="0.8" fill="none" stroke-linecap="round"/><path d="M443,243 Q503,229 567,191" stroke="rgba(232,119,34,0.041)" stroke-width="6" fill="none" stroke-linecap="round"/><path d="M443,243 Q503,229 567,191" stroke="rgba(232,119,34,0.136)" stroke-width="0.8" fill="none" stroke-linecap="round"/><path d="M443,243 Q450,261 471,316" stroke="rgba(232,119,34,0.023)" stroke-width="6" fill="none" stroke-linecap="round"/><path d="M443,243 Q450,261 471,316" stroke="rgba(232,119,34,0.076)" stroke-width="0.8" fill="none" stroke-linecap="round"/><path d="M443,243 Q508,228 550,250" stroke="rgba(232,119,34,0.051)" stroke-width="6" fill="none" stroke-linecap="round"/><path d="M443,243 Q508,228 550,250" stroke="rgba(232,119,34,0.170)" stroke-width="0.8" fill="none" stroke-linecap="round"/><path d="M430,169 Q437,242 471,319" stroke="rgba(232,119,34,0.036)" stroke-width="6" fill="none" stroke-linecap="round"/><path d="M430,169 Q437,242 471,319" stroke="rgba(232,119,34,0.122)" stroke-width="0.8" fill="none" stroke-linecap="round"/><path d="M430,169 Q465,260 471,316" stroke="rgba(232,119,34,0.023)" stroke-width="6" fill="none" stroke-linecap="round"/><path d="M430,169 Q465,260 471,316" stroke="rgba(232,119,34,0.076)" stroke-width="0.8" fill="none" stroke-linecap="round"/><path d="M430,169 Q488,207 550,250" stroke="rgba(232,119,34,0.036)" stroke-width="6" fill="none" stroke-linecap="round"/><path d="M430,169 Q488,207 550,250" stroke="rgba(232,119,34,0.122)" stroke-width="0.8" fill="none" stroke-linecap="round"/><path d="M546,296 Q544,258 561,191" stroke="rgba(232,119,34,0.021)" stroke-width="6" fill="none" stroke-linecap="round"/><path d="M546,296 Q544,258 561,191" stroke="rgba(232,119,34,0.069)" stroke-width="0.8" fill="none" stroke-linecap="round"/><path d="M546,296 Q545,308 513,305" stroke="rgba(232,119,34,0.045)" stroke-width="6" fill="none" stroke-linecap="round"/><path d="M546,296 Q545,308 513,305" stroke="rgba(232,119,34,0.151)" stroke-width="0.8" fill="none" stroke-linecap="round"/><path d="M546,296 Q502,300 471,319" stroke="rgba(232,119,34,0.045)" stroke-width="6" fill="none" stroke-linecap="round"/><path d="M546,296 Q502,300 471,319" stroke="rgba(232,119,34,0.151)" stroke-width="0.8" fill="none" stroke-linecap="round"/><path d="M546,296 Q523,291 471,316" stroke="rgba(232,119,34,0.023)" stroke-width="6" fill="none" stroke-linecap="round"/><path d="M546,296 Q523,291 471,316" stroke="rgba(232,119,34,0.076)" stroke-width="0.8" fill="none" stroke-linecap="round"/><path d="M546,296 Q592,336 650,350" stroke="rgba(232,119,34,0.045)" stroke-width="6" fill="none" stroke-linecap="round"/><path d="M546,296 Q592,336 650,350" stroke="rgba(232,119,34,0.151)" stroke-width="0.8" fill="none" stroke-linecap="round"/><path d="M561,191 Q544,230 513,305" stroke="rgba(232,119,34,0.021)" stroke-width="6" fill="none" stroke-linecap="round"/><path d="M561,191 Q544,230 513,305" stroke="rgba(232,119,34,0.069)" stroke-width="0.8" fill="none" stroke-linecap="round"/><path d="M561,191 Q528,256 471,319" stroke="rgba(232,119,34,0.021)" stroke-width="6" fill="none" stroke-linecap="round"/><path d="M561,191 Q528,256 471,319" stroke="rgba(232,119,34,0.069)" stroke-width="0.8" fill="none" stroke-linecap="round"/><path d="M561,191 Q580,184 567,191" stroke="rgba(232,119,34,0.021)" stroke-width="6" fill="none" stroke-linecap="round"/><path d="M561,191 Q580,184 567,191" stroke="rgba(232,119,34,0.069)" stroke-width="0.8" fill="none" stroke-linecap="round"/><path d="M561,191 Q619,253 650,350" stroke="rgba(232,119,34,0.021)" stroke-width="6" fill="none" stroke-linecap="round"/><path d="M561,191 Q619,253 650,350" stroke="rgba(232,119,34,0.069)" stroke-width="0.8" fill="none" stroke-linecap="round"/><path d="M513,305 Q476,300 471,319" stroke="rgba(232,119,34,0.046)" stroke-width="6" fill="none" stroke-linecap="round"/><path d="M513,305 Q476,300 471,319" stroke="rgba(232,119,34,0.154)" stroke-width="0.8" fill="none" stroke-linecap="round"/><path d="M513,305 Q484,328 471,316" stroke="rgba(232,119,34,0.023)" stroke-width="6" fill="none" stroke-linecap="round"/><path d="M513,305 Q484,328 471,316" stroke="rgba(232,119,34,0.076)" stroke-width="0.8" fill="none" stroke-linecap="round"/><path d="M513,305 Q525,259 550,250" stroke="rgba(232,119,34,0.046)" stroke-width="6" fill="none" stroke-linecap="round"/><path d="M513,305 Q525,259 550,250" stroke="rgba(232,119,34,0.154)" stroke-width="0.8" fill="none" stroke-linecap="round"/><path d="M513,305 Q594,336 650,350" stroke="rgba(232,119,34,0.046)" stroke-width="6" fill="none" stroke-linecap="round"/><path d="M513,305 Q594,336 650,350" stroke="rgba(232,119,34,0.154)" stroke-width="0.8" fill="none" stroke-linecap="round"/><path d="M471,319 Q559,348 650,350" stroke="rgba(232,119,34,0.054)" stroke-width="6" fill="none" stroke-linecap="round"/><path d="M471,319 Q559,348 650,350" stroke="rgba(232,119,34,0.180)" stroke-width="0.8" fill="none" stroke-linecap="round"/><path d="M471,319 Q475,344 480,400" stroke="rgba(232,119,34,0.051)" stroke-width="6" fill="none" stroke-linecap="round"/><path d="M471,319 Q475,344 480,400" stroke="rgba(232,119,34,0.170)" stroke-width="0.8" fill="none" stroke-linecap="round"/><path d="M567,191 Q618,287 650,350" stroke="rgba(232,119,34,0.041)" stroke-width="6" fill="none" stroke-linecap="round"/><path d="M567,191 Q618,287 650,350" stroke="rgba(232,119,34,0.136)" stroke-width="0.8" fill="none" stroke-linecap="round"/><path d="M572,541 Q538,487 480,400" stroke="rgba(232,119,34,0.031)" stroke-width="6" fill="none" stroke-linecap="round"/><path d="M572,541 Q538,487 480,400" stroke="rgba(232,119,34,0.102)" stroke-width="0.8" fill="none" stroke-linecap="round"/><path d="M471,316 Q519,271 550,250" stroke="rgba(232,119,34,0.023)" stroke-width="6" fill="none" stroke-linecap="round"/><path d="M471,316 Q519,271 550,250" stroke="rgba(232,119,34,0.076)" stroke-width="0.8" fill="none" stroke-linecap="round"/><path d="M471,316 Q558,333 650,350" stroke="rgba(232,119,34,0.023)" stroke-width="6" fill="none" stroke-linecap="round"/><path d="M471,316 Q558,333 650,350" stroke="rgba(232,119,34,0.076)" stroke-width="0.8" fill="none" stroke-linecap="round"/><path d="M471,316 Q489,355 480,400" stroke="rgba(232,119,34,0.023)" stroke-width="6" fill="none" stroke-linecap="round"/><path d="M471,316 Q489,355 480,400" stroke="rgba(232,119,34,0.076)" stroke-width="0.8" fill="none" stroke-linecap="round"/><path d="M550,250 Q595,311 650,350" stroke="rgba(232,119,34,0.054)" stroke-width="6" fill="none" stroke-linecap="round"/><path d="M550,250 Q595,311 650,350" stroke="rgba(232,119,34,0.180)" stroke-width="0.8" fill="none" stroke-linecap="round"/><path d="M550,250 Q512,337 480,400" stroke="rgba(232,119,34,0.051)" stroke-width="6" fill="none" stroke-linecap="round"/><path d="M550,250 Q512,337 480,400" stroke="rgba(232,119,34,0.170)" stroke-width="0.8" fill="none" stroke-linecap="round"/><path d="M572,541 Q616,547 641,562" stroke="rgba(232,119,34,0.09)" stroke-width="1.5" fill="none" stroke-linecap="round"/><path d="M641,562 Q664,558 683,553" stroke="rgba(232,119,34,0.06)" stroke-width="1.0" fill="none" stroke-linecap="round"/><path d="M683,553 Q695,554 709,550" stroke="rgba(232,119,34,0.04)" stroke-width="0.6" fill="none" stroke-linecap="round"/><path d="M572,541 Q581,570 577,593" stroke="rgba(232,119,34,0.09)" stroke-width="1.5" fill="none" stroke-linecap="round"/><path d="M572,541 Q557,559 525,578" stroke="rgba(232,119,34,0.09)" stroke-width="1.5" fill="none" stroke-linecap="round"/><path d="M525,578 Q515,597 503,607" stroke="rgba(232,119,34,0.06)" stroke-width="1.0" fill="none" stroke-linecap="round"/><path d="M503,607 Q495,614 492,626" stroke="rgba(232,119,34,0.04)" stroke-width="0.6" fill="none" stroke-linecap="round"/><path d="M572,541 Q550,533 522,536" stroke="rgba(232,119,34,0.09)" stroke-width="1.5" fill="none" stroke-linecap="round"/><path d="M522,536 Q510,528 493,528" stroke="rgba(232,119,34,0.06)" stroke-width="1.0" fill="none" stroke-linecap="round"/><path d="M493,528 Q484,528 475,525" stroke="rgba(232,119,34,0.04)" stroke-width="0.6" fill="none" stroke-linecap="round"/><path d="M572,541 Q567,517 553,486" stroke="rgba(232,119,34,0.09)" stroke-width="1.5" fill="none" stroke-linecap="round"/><path d="M572,541 Q584,517 601,504" stroke="rgba(232,119,34,0.09)" stroke-width="1.5" fill="none" stroke-linecap="round"/><path d="M601,504 Q606,491 617,481" stroke="rgba(232,119,34,0.06)" stroke-width="1.0" fill="none" stroke-linecap="round"/><path d="M471,316 Q511,321 549,310" stroke="rgba(232,119,34,0.07)" stroke-width="1.5" fill="none" stroke-linecap="round"/><path d="M549,310 Q567,320 592,328" stroke="rgba(232,119,34,0.05)" stroke-width="1.0" fill="none" stroke-linecap="round"/><path d="M471,316 Q487,336 492,369" stroke="rgba(232,119,34,0.07)" stroke-width="1.5" fill="none" stroke-linecap="round"/><path d="M492,369 Q503,382 516,394" stroke="rgba(232,119,34,0.05)" stroke-width="1.0" fill="none" stroke-linecap="round"/><path d="M471,316 Q448,346 438,362" stroke="rgba(232,119,34,0.07)" stroke-width="1.5" fill="none" stroke-linecap="round"/><path d="M438,362 Q424,381 418,390" stroke="rgba(232,119,34,0.05)" stroke-width="1.0" fill="none" stroke-linecap="round"/><path d="M418,390 Q410,397 405,406" stroke="rgba(232,119,34,0.03)" stroke-width="0.6" fill="none" stroke-linecap="round"/><path d="M471,316 Q442,315 400,293" stroke="rgba(232,119,34,0.07)" stroke-width="1.5" fill="none" stroke-linecap="round"/><path d="M471,316 Q468,292 453,260" stroke="rgba(232,119,34,0.07)" stroke-width="1.5" fill="none" stroke-linecap="round"/><path d="M471,316 Q476,296 497,263" stroke="rgba(232,119,34,0.07)" stroke-width="1.5" fill="none" stroke-linecap="round"/><path d="M497,263 Q496,241 502,228" stroke="rgba(232,119,34,0.05)" stroke-width="1.0" fill="none" stroke-linecap="round"/><path d="M550,250 Q580,250 628,248" stroke="rgba(232,119,34,0.17)" stroke-width="1.5" fill="none" stroke-linecap="round"/><path d="M628,248 Q643,253 671,267" stroke="rgba(232,119,34,0.12)" stroke-width="1.0" fill="none" stroke-linecap="round"/><path d="M671,267 Q683,267 699,272" stroke="rgba(232,119,34,0.09)" stroke-width="0.6" fill="none" stroke-linecap="round"/><path d="M550,250 Q569,276 575,301" stroke="rgba(232,119,34,0.17)" stroke-width="1.5" fill="none" stroke-linecap="round"/><path d="M575,301 Q586,314 590,332" stroke="rgba(232,119,34,0.12)" stroke-width="1.0" fill="none" stroke-linecap="round"/><path d="M550,250 Q518,283 497,301" stroke="rgba(232,119,34,0.17)" stroke-width="1.5" fill="none" stroke-linecap="round"/><path d="M497,301 Q492,319 478,341" stroke="rgba(232,119,34,0.12)" stroke-width="1.0" fill="none" stroke-linecap="round"/><path d="M478,341 Q466,352 457,357" stroke="rgba(232,119,34,0.09)" stroke-width="0.6" fill="none" stroke-linecap="round"/><path d="M550,250 Q529,240 512,224" stroke="rgba(232,119,34,0.17)" stroke-width="1.5" fill="none" stroke-linecap="round"/><path d="M550,250 Q535,202 526,168" stroke="rgba(232,119,34,0.17)" stroke-width="1.5" fill="none" stroke-linecap="round"/><path d="M550,250 Q572,223 595,212" stroke="rgba(232,119,34,0.17)" stroke-width="1.5" fill="none" stroke-linecap="round"/><path d="M650,350 Q673,376 714,386" stroke="rgba(232,119,34,0.16)" stroke-width="1.5" fill="none" stroke-linecap="round"/><path d="M714,386 Q740,398 755,402" stroke="rgba(232,119,34,0.11)" stroke-width="1.0" fill="none" stroke-linecap="round"/><path d="M755,402 Q762,411 772,423" stroke="rgba(232,119,34,0.08)" stroke-width="0.6" fill="none" stroke-linecap="round"/><path d="M650,350 Q663,372 676,401" stroke="rgba(232,119,34,0.16)" stroke-width="1.5" fill="none" stroke-linecap="round"/><path d="M650,350 Q611,379 587,394" stroke="rgba(232,119,34,0.16)" stroke-width="1.5" fill="none" stroke-linecap="round"/><path d="M587,394 Q576,413 551,423" stroke="rgba(232,119,34,0.11)" stroke-width="1.0" fill="none" stroke-linecap="round"/><path d="M551,423 Q542,434 531,442" stroke="rgba(232,119,34,0.08)" stroke-width="0.6" fill="none" stroke-linecap="round"/><path d="M650,350 Q619,346 573,347" stroke="rgba(232,119,34,0.16)" stroke-width="1.5" fill="none" stroke-linecap="round"/><path d="M650,350 Q647,315 633,291" stroke="rgba(232,119,34,0.16)" stroke-width="1.5" fill="none" stroke-linecap="round"/><path d="M633,291 Q619,283 605,266" stroke="rgba(232,119,34,0.11)" stroke-width="1.0" fill="none" stroke-linecap="round"/><path d="M605,266 Q602,254 595,246" stroke="rgba(232,119,34,0.08)" stroke-width="0.6" fill="none" stroke-linecap="round"/><path d="M650,350 Q665,337 675,317" stroke="rgba(232,119,34,0.16)" stroke-width="1.5" fill="none" stroke-linecap="round"/><path d="M675,317 Q684,310 694,301" stroke="rgba(232,119,34,0.11)" stroke-width="1.0" fill="none" stroke-linecap="round"/><path d="M480,400 Q511,404 560,413" stroke="rgba(232,119,34,0.15)" stroke-width="1.5" fill="none" stroke-linecap="round"/><path d="M560,413 Q578,410 608,404" stroke="rgba(232,119,34,0.10)" stroke-width="1.0" fill="none" stroke-linecap="round"/><path d="M480,400 Q478,441 488,487" stroke="rgba(232,119,34,0.15)" stroke-width="1.5" fill="none" stroke-linecap="round"/><path d="M488,487 Q491,511 486,540" stroke="rgba(232,119,34,0.10)" stroke-width="1.0" fill="none" stroke-linecap="round"/><path d="M486,540 Q493,556 491,571" stroke="rgba(232,119,34,0.07)" stroke-width="0.6" fill="none" stroke-linecap="round"/><path d="M480,400 Q472,422 446,464" stroke="rgba(232,119,34,0.15)" stroke-width="1.5" fill="none" stroke-linecap="round"/><path d="M480,400 Q433,389 400,391" stroke="rgba(232,119,34,0.15)" stroke-width="1.5" fill="none" stroke-linecap="round"/><path d="M480,400 Q481,362 466,337" stroke="rgba(232,119,34,0.15)" stroke-width="1.5" fill="none" stroke-linecap="round"/><path d="M466,337 Q461,316 457,299" stroke="rgba(232,119,34,0.10)" stroke-width="1.0" fill="none" stroke-linecap="round"/><path d="M480,400 Q497,377 521,339" stroke="rgba(232,119,34,0.15)" stroke-width="1.5" fill="none" stroke-linecap="round"/><path d="M521,339 Q534,325 540,299" stroke="rgba(232,119,34,0.10)" stroke-width="1.0" fill="none" stroke-linecap="round"/><circle cx="351" cy="204" r="1.8" fill="rgba(232,119,34,0.41)"/><circle cx="571" cy="446" r="2.8" fill="rgba(232,119,34,0.42)"/><circle cx="694" cy="519" r="17" fill="rgba(232,119,34,0.07)"/><circle cx="694" cy="519" r="6" fill="rgba(255,200,120,0.46)"/><circle cx="694" cy="519" r="2" fill="rgba(255,230,180,0.83)"/><circle cx="427" cy="507" r="16" fill="rgba(232,119,34,0.08)"/><circle cx="427" cy="507" r="5" fill="rgba(255,200,120,0.48)"/><circle cx="427" cy="507" r="2" fill="rgba(255,230,180,0.86)"/><circle cx="442" cy="320" r="16" fill="rgba(232,119,34,0.04)"/><circle cx="442" cy="320" r="5" fill="rgba(255,200,120,0.28)"/><circle cx="442" cy="320" r="2" fill="rgba(255,230,180,0.50)"/><circle cx="549" cy="227" r="18" fill="rgba(232,119,34,0.03)"/><circle cx="549" cy="227" r="6" fill="rgba(255,200,120,0.18)"/><circle cx="549" cy="227" r="2" fill="rgba(255,230,180,0.32)"/><circle cx="443" cy="243" r="2.8" fill="rgba(232,119,34,0.42)"/><circle cx="430" cy="169" r="1.6" fill="rgba(232,119,34,0.30)"/><circle cx="546" cy="296" r="2.2" fill="rgba(232,119,34,0.38)"/><circle cx="561" cy="191" r="2.1" fill="rgba(232,119,34,0.17)"/><circle cx="513" cy="305" r="3.3" fill="rgba(232,119,34,0.38)"/><circle cx="471" cy="319" r="2.5" fill="rgba(232,119,34,0.48)"/><circle cx="567" cy="191" r="2.4" fill="rgba(232,119,34,0.34)"/><circle cx="572" cy="541" r="19" fill="rgba(232,119,34,0.04)"/><circle cx="572" cy="541" r="6" fill="rgba(255,200,120,0.26)"/><circle cx="572" cy="541" r="2" fill="rgba(255,230,180,0.46)"/><circle cx="471" cy="316" r="19" fill="rgba(232,119,34,0.03)"/><circle cx="471" cy="316" r="6" fill="rgba(255,200,120,0.19)"/><circle cx="471" cy="316" r="2" fill="rgba(255,230,180,0.34)"/><circle cx="550" cy="250" r="36" fill="rgba(232,119,34,0.08)"/><circle cx="550" cy="250" r="12" fill="rgba(255,200,120,0.50)"/><circle cx="550" cy="250" r="4" fill="rgba(255,230,180,0.90)"/><circle cx="650" cy="350" r="24" fill="rgba(232,119,34,0.07)"/><circle cx="650" cy="350" r="8" fill="rgba(255,200,120,0.45)"/><circle cx="650" cy="350" r="2" fill="rgba(255,230,180,0.81)"/><circle cx="480" cy="400" r="21" fill="rgba(232,119,34,0.07)"/><circle cx="480" cy="400" r="7" fill="rgba(255,200,120,0.42)"/><circle cx="480" cy="400" r="2" fill="rgba(255,230,180,0.77)"/></svg>