<svg xmlns="http://www.w3.org/2000/svg" viewBox="0 0 800 600"><rect width="800" height="600" fill="#0d0a1a"/><line x1="81" y1="146" x2="187" y2="178" stroke="rgba(120,100,220,0.10)" stroke-width="0.7"/><line x1="81" y1="146" x2="192" y2="124" stroke="rgba(120,100,220,0.07)" stroke-width="0.7"/><line x1="419" y1="507" x2="327" y2="470" stroke="rgba(120,100,220,0.11)" stroke-width="0.7"/><line x1="434" y1="524" x2="433" y2="515" stroke="rgba(120,100,220,0.08)" stroke-width="0.7"/><line x1="214" y1="181" x2="132" y2="252" stroke="rgba(120,100,220,0.07)" stroke-width="0.7"/><line x1="304" y1="287" x2="257" y2="324" stroke="rgba(120,100,220,0.10)" stroke-width="0.7"/><line x1="130" y1="450" x2="168" y2="511" stroke="rgba(120,100,220,0.10)" stroke-width="0.7"/><line x1="130" y1="450" x2="238" y2="450" stroke="rgba(120,100,220,0.10)" stroke-width="0.7"/><line x1="187" y1="178" x2="254" y2="87" stroke="rgba(120,100,220,0.08)" stroke-width="0.7"/><line x1="187" y1="178" x2="132" y2="252" stroke="rgba(120,100,220,0.07)" stroke-width="0.7"/><line x1="260" y1="462" x2="238" y2="450" stroke="rgba(120,100,220,0.10)" stroke-width="0.7"/><line x1="260" y1="462" x2="308" y2="424" stroke="rgba(120,100,220,0.08)" stroke-width="0.7"/><line x1="601" y1="78" x2="554" y2="137" stroke="rgba(120,100,220,0.13)" stroke-width="0.7"/><line x1="327" y1="470" x2="308" y2="424" stroke="rgba(120,100,220,0.08)" stroke-width="0.7"/><line x1="428" y1="386" x2="308" y2="424" stroke="rgba(120,100,220,0.08)" stroke-width="0.7"/><line x1="428" y1="386" x2="519" y2="303" stroke="rgba(120,100,220,0.07)" stroke-width="0.7"/><line x1="619" y1="258" x2="677" y2="201" stroke="rgba(120,100,220,0.10)" stroke-width="0.7"/><line x1="619" y1="258" x2="519" y2="303" stroke="rgba(120,100,220,0.07)" stroke-width="0.7"/><line x1="619" y1="258" x2="519" y2="225" stroke="rgba(120,100,220,0.10)" stroke-width="0.7"/><line x1="254" y1="87" x2="192" y2="124" stroke="rgba(120,100,220,0.07)" stroke-width="0.7"/><line x1="448" y1="94" x2="554" y2="137" stroke="rgba(120,100,220,0.08)" stroke-width="0.7"/><line x1="132" y1="252" x2="194" y2="322" stroke="rgba(120,100,220,0.07)" stroke-width="0.7"/><line x1="554" y1="137" x2="604" y2="225" stroke="rgba(120,100,220,0.13)" stroke-width="0.7"/><line x1="554" y1="137" x2="519" y2="225" stroke="rgba(120,100,220,0.13)" stroke-width="0.7"/><line x1="606" y1="262" x2="588" y2="268" stroke="rgba(120,100,220,0.08)" stroke-width="0.7"/><line x1="606" y1="262" x2="677" y2="201" stroke="rgba(120,100,220,0.13)" stroke-width="0.7"/><line x1="606" y1="262" x2="519" y2="303" stroke="rgba(120,100,220,0.07)" stroke-width="0.7"/><line x1="606" y1="262" x2="604" y2="225" stroke="rgba(120,100,220,0.13)" stroke-width="0.7"/><line x1="606" y1="262" x2="519" y2="225" stroke="rgba(120,100,220,0.13)" stroke-width="0.7"/><line x1="588" y1="268" x2="677" y2="201" stroke="rgba(120,100,220,0.08)" stroke-width="0.7"/><line x1="588" y1="268" x2="519" y2="303" stroke="rgba(120,100,220,0.07)" stroke-width="0.7"/><line x1="588" y1="268" x2="604" y2="225" stroke="rgba(120,100,220,0.08)" stroke-width="0.7"/><line x1="677" y1="201" x2="604" y2="225" stroke="rgba(120,100,220,0.13)" stroke-width="0.7"/><line x1="519" y1="303" x2="519" y2="225" stroke="rgba(120,100,220,0.07)" stroke-width="0.7"/><line x1="194" y1="322" x2="257" y2="324" stroke="rgba(120,100,220,0.18)" stroke-width="0.7"/><line x1="604" y1="225" x2="519" y2="225" stroke="rgba(120,100,220,0.16)" stroke-width="0.7"/><circle cx="81" cy="146" r="2.9" fill="rgba(200,190,240,0.35)"/><circle cx="419" cy="507" r="2.6" fill="rgba(200,190,240,0.39)"/><circle cx="434" cy="524" r="1.5" fill="rgba(200,190,240,0.52)"/><circle cx="214" cy="181" r="2.2" fill="rgba(200,190,240,0.26)"/><circle cx="433" cy="515" r="1.5" fill="rgba(200,190,240,0.29)"/><circle cx="304" cy="287" r="2.0" fill="rgba(200,190,240,0.37)"/><circle cx="130" cy="450" r="1.8" fill="rgba(200,190,240,0.36)"/><circle cx="187" cy="178" r="2.9" fill="rgba(200,190,240,0.47)"/><circle cx="260" cy="462" r="2.2" fill="rgba(200,190,240,0.34)"/><circle cx="601" cy="78" r="2.8" fill="rgba(200,190,240,0.54)"/><circle cx="327" cy="470" r="2.8" fill="rgba(200,190,240,0.44)"/><circle cx="168" cy="511" r="2.4" fill="rgba(200,190,240,0.50)"/><circle cx="428" cy="386" r="1.7" fill="rgba(200,190,240,0.48)"/><circle cx="238" cy="450" r="1.5" fill="rgba(200,190,240,0.38)"/><circle cx="619" cy="258" r="2.7" fill="rgba(200,190,240,0.37)"/><circle cx="254" cy="87" r="2.1" fill="rgba(200,190,240,0.29)"/><circle cx="308" cy="424" r="2.5" fill="rgba(200,190,240,0.27)"/><circle cx="448" cy="94" r="2.3" fill="rgba(200,190,240,0.30)"/><circle cx="132" cy="252" r="1.5" fill="rgba(200,190,240,0.25)"/><circle cx="554" cy="137" r="2.4" fill="rgba(200,190,240,0.47)"/><circle cx="606" cy="262" r="2.9" fill="rgba(200,190,240,0.45)"/><circle cx="588" cy="268" r="2.2" fill="rgba(200,190,240,0.29)"/><circle cx="677" cy="201" r="2.4" fill="rgba(200,190,240,0.45)"/><circle cx="192" cy="124" r="2.5" fill="rgba(200,190,240,0.23)"/><circle cx="519" cy="303" r="1.4" fill="rgba(200,190,240,0.24)"/><circle cx="194" cy="322" r="15" fill="rgba(120,100,220,0.20)"/><circle cx="194" cy="322" r="3.6" fill="rgba(200,190,240,0.69)"/><circle cx="604" cy="225" r="18" fill="rgba(120,100,220,0.16)"/><circle cx="604" cy="225" r="4.3" fill="rgba(200,190,240,0.57)"/><circle cx="519" cy="225" r="16" fill="rgba(120,100,220,0.16)"/><circle cx="519" cy="225" r="3.9" fill="rgba(200,190,240,0.57)"/><circle cx="257" cy="324" r="19" fill="rgba(120,100,220,0.18)"/><circle cx="257" cy="324" r="4.5" fill="rgba(200,190,240,0.64)"/></svg>