<svg xmlns="http://www.w3.org/2000/svg" viewBox="0 0 800 600"><rect width="800" height="600" fill="#0d0a1a"/><circle cx="400" cy="300" r="220" fill="url(#ambg)"/><path d="M400,280 Q355,299 340,340" stroke="rgba(140,130,200,0.12)" stroke-width="6" fill="none" stroke-linecap="round"/><path d="M400,280 Q355,299 340,340" stroke="rgba(140,130,200,0.35)" stroke-width="1.2" fill="none" stroke-linecap="round"/><path d="M400,280 Q420,299 460,330" stroke="rgba(140,130,200,0.12)" stroke-width="6" fill="none" stroke-linecap="round"/><path d="M400,280 Q420,299 460,330" stroke="rgba(140,130,200,0.35)" stroke-width="1.2" fill="none" stroke-linecap="round"/><path d="M400,280 Q371,261 370,220" stroke="rgba(140,130,200,0.12)" stroke-width="6" fill="none" stroke-linecap="round"/><path d="M400,280 Q371,261 370,220" stroke="rgba(140,130,200,0.35)" stroke-width="1.2" fill="none" stroke-linecap="round"/><path d="M400,280 Q424,323 440,380" stroke="rgba(140,130,200,0.12)" stroke-width="6" fill="none" stroke-linecap="round"/><path d="M400,280 Q424,323 440,380" stroke="rgba(140,130,200,0.35)" stroke-width="1.2" fill="none" stroke-linecap="round"/><path d="M340,340 Q394,349 460,330" stroke="rgba(140,130,200,0.12)" stroke-width="6" fill="none" stroke-linecap="round"/><path d="M340,340 Q394,349 460,330" stroke="rgba(140,130,200,0.35)" stroke-width="1.2" fill="none" stroke-linecap="round"/><path d="M340,340 Q356,295 370,220" stroke="rgba(140,130,200,0.12)" stroke-width="6" fill="none" stroke-linecap="round"/><path d="M340,340 Q356,295 370,220" stroke="rgba(140,130,200,0.35)" stroke-width="1.2" fill="none" stroke-linecap="round"/><path d="M340,340 Q405,365 440,380" stroke="rgba(140,130,200,0.12)" stroke-width="6" fill="none" stroke-linecap="round"/><path d="M340,340 Q405,365 440,380" stroke="rgba(140,130,200,0.35)" stroke-width="1.2" fill="none" stroke-linecap="round"/><path d="M460,330 Q403,284 370,220" stroke="rgba(140,130,200,0.12)" stroke-width="6" fill="none" stroke-linecap="round"/><path d="M460,330 Q403,284 370,220" stroke="rgba(140,130,200,0.35)" stroke-width="1.2" fill="none" stroke-linecap="round"/><path d="M460,330 Q455,358 440,380" stroke="rgba(140,130,200,0.12)" stroke-width="6" fill="none" stroke-linecap="round"/><path d="M460,330 Q455,358 440,380" stroke="rgba(140,130,200,0.35)" stroke-width="1.2" fill="none" stroke-linecap="round"/><path d="M370,220 Q406,289 440,380" stroke="rgba(140,130,200,0.12)" stroke-width="6" fill="none" stroke-linecap="round"/><path d="M370,220 Q406,289 440,380" stroke="rgba(140,130,200,0.35)" stroke-width="1.2" fill="none" stroke-linecap="round"/><path d="M400,280 Q426,275 447,280" stroke="rgba(140,130,200,0.28)" stroke-width="1.5" fill="none" stroke-linecap="round"/><path d="M400,280 Q395,294 397,306" stroke="rgba(232,119,34,0.28)" stroke-width="1.5" fill="none" stroke-linecap="round"/><path d="M397,306 Q398,312 398,321" stroke="rgba(232,119,34,0.20)" stroke-width="0.9" fill="none" stroke-linecap="round"/><path d="M400,280 Q376,286 365,301" stroke="rgba(140,130,200,0.28)" stroke-width="1.5" fill="none" stroke-linecap="round"/><path d="M365,301 Q357,306 348,319" stroke="rgba(140,130,200,0.20)" stroke-width="0.9" fill="none" stroke-linecap="round"/><path d="M400,280 Q386,259 373,248" stroke="rgba(232,119,34,0.28)" stroke-width="1.5" fill="none" stroke-linecap="round"/><path d="M373,248 Q369,237 361,226" stroke="rgba(140,130,200,0.20)" stroke-width="0.9" fill="none" stroke-linecap="round"/><path d="M400,280 Q421,263 436,245" stroke="rgba(140,130,200,0.28)" stroke-width="1.5" fill="none" stroke-linecap="round"/><path d="M340,340 Q361,352 383,354" stroke="rgba(140,130,200,0.28)" stroke-width="1.5" fill="none" stroke-linecap="round"/><path d="M340,340 Q335,365 343,381" stroke="rgba(140,130,200,0.28)" stroke-width="1.5" fill="none" stroke-linecap="round"/><path d="M343,381 Q334,394 327,400" stroke="rgba(140,130,200,0.20)" stroke-width="0.9" fill="none" stroke-linecap="round"/><path d="M340,340 Q327,353 308,360" stroke="rgba(140,130,200,0.28)" stroke-width="1.5" fill="none" stroke-linecap="round"/><path d="M308,360 Q297,370 291,376" stroke="rgba(140,130,200,0.20)" stroke-width="0.9" fill="none" stroke-linecap="round"/><path d="M340,340 Q326,326 314,311" stroke="rgba(140,130,200,0.28)" stroke-width="1.5" fill="none" stroke-linecap="round"/><path d="M314,311 Q309,300 300,292" stroke="rgba(232,119,34,0.20)" stroke-width="0.9" fill="none" stroke-linecap="round"/><path d="M340,340 Q340,331 344,315" stroke="rgba(232,119,34,0.28)" stroke-width="1.5" fill="none" stroke-linecap="round"/><path d="M344,315 Q346,307 344,300" stroke="rgba(232,119,34,0.20)" stroke-width="0.9" fill="none" stroke-linecap="round"/><path d="M460,330 Q481,337 494,344" stroke="rgba(232,119,34,0.28)" stroke-width="1.5" fill="none" stroke-linecap="round"/><path d="M460,330 Q467,347 468,365" stroke="rgba(140,130,200,0.28)" stroke-width="1.5" fill="none" stroke-linecap="round"/><path d="M468,365 Q465,376 463,386" stroke="rgba(140,130,200,0.20)" stroke-width="0.9" fill="none" stroke-linecap="round"/><path d="M460,330 Q443,337 426,338" stroke="rgba(232,119,34,0.28)" stroke-width="1.5" fill="none" stroke-linecap="round"/><path d="M426,338 Q417,342 405,340" stroke="rgba(140,130,200,0.20)" stroke-width="0.9" fill="none" stroke-linecap="round"/><path d="M460,330 Q455,311 438,290" stroke="rgba(232,119,34,0.28)" stroke-width="1.5" fill="none" stroke-linecap="round"/><path d="M460,330 Q462,312 473,295" stroke="rgba(140,130,200,0.28)" stroke-width="1.5" fill="none" stroke-linecap="round"/><path d="M370,220 Q390,228 417,229" stroke="rgba(232,119,34,0.28)" stroke-width="1.5" fill="none" stroke-linecap="round"/><path d="M417,229 Q429,228 446,231" stroke="rgba(232,119,34,0.20)" stroke-width="0.9" fill="none" stroke-linecap="round"/><path d="M446,231 Q453,229 463,226" stroke="rgba(232,119,34,0.14)" stroke-width="0.5" fill="none" stroke-linecap="round"/><path d="M370,220 Q370,232 377,245" stroke="rgba(140,130,200,0.28)" stroke-width="1.5" fill="none" stroke-linecap="round"/><path d="M370,220 Q355,223 331,228" stroke="rgba(140,130,200,0.28)" stroke-width="1.5" fill="none" stroke-linecap="round"/><path d="M331,228 Q318,236 311,241" stroke="rgba(140,130,200,0.20)" stroke-width="0.9" fill="none" stroke-linecap="round"/><path d="M370,220 Q361,205 349,198" stroke="rgba(140,130,200,0.28)" stroke-width="1.5" fill="none" stroke-linecap="round"/><path d="M349,198 Q342,192 336,185" stroke="rgba(140,130,200,0.20)" stroke-width="0.9" fill="none" stroke-linecap="round"/><path d="M336,185 Q335,178 333,174" stroke="rgba(140,130,200,0.14)" stroke-width="0.5" fill="none" stroke-linecap="round"/><path d="M370,220 Q387,210 395,188" stroke="rgba(232,119,34,0.28)" stroke-width="1.5" fill="none" stroke-linecap="round"/><path d="M440,380 Q464,387 486,395" stroke="rgba(232,119,34,0.28)" stroke-width="1.5" fill="none" stroke-linecap="round"/><path d="M440,380 Q437,393 440,405" stroke="rgba(140,130,200,0.28)" stroke-width="1.5" fill="none" stroke-linecap="round"/><path d="M440,405 Q442,412 442,420" stroke="rgba(232,119,34,0.20)" stroke-width="0.9" fill="none" stroke-linecap="round"/><path d="M442,420 Q443,424 444,429" stroke="rgba(140,130,200,0.14)" stroke-width="0.5" fill="none" stroke-linecap="round"/><path d="M440,380 Q426,383 415,381" stroke="rgba(140,130,200,0.28)" stroke-width="1.5" fill="none" stroke-linecap="round"/><path d="M440,380 Q435,364 421,341" stroke="rgba(140,130,200,0.28)" stroke-width="1.5" fill="none" stroke-linecap="round"/><path d="M421,341 Q411,334 398,330" stroke="rgba(140,130,200,0.20)" stroke-width="0.9" fill="none" stroke-linecap="round"/><path d="M398,330 Q392,334 383,333" stroke="rgba(140,130,200,0.14)" stroke-width="0.5" fill="none" stroke-linecap="round"/><path d="M440,380 Q453,368 458,356" stroke="rgba(140,130,200,0.28)" stroke-width="1.5" fill="none" stroke-linecap="round"/><circle cx="400" cy="280" r="16" fill="url(#ng0)"/><circle cx="400" cy="280" r="5" fill="url(#nd0)"/><circle cx="340" cy="340" r="12" fill="url(#ng1)"/><circle cx="340" cy="340" r="4" fill="url(#nd1)"/><circle cx="460" cy="330" r="13" fill="url(#ng2)"/><circle cx="460" cy="330" r="4" fill="url(#nd2)"/><circle cx="370" cy="220" r="10" fill="url(#ng3)"/><circle cx="370" cy="220" r="3" fill="url(#nd3)"/><circle cx="440" cy="380" r="9" fill="url(#ng4)"/><circle cx="440" cy="380" r="3" fill="url(#nd4)"/><defs><radialGradient id="ng0"><stop offset="0%" stop-color="rgba(200,180,255,0.7)"/><stop offset="60%" stop-color="rgba(140,130,200,0.3)"/><stop offset="100%" stop-color="rgba(140,130,200,0)"/></radialGradient><radialGradient id="nd0"><stop offset="0%" stop-color="rgba(220,210,255,0.9)"/><stop offset="100%" stop-color="rgba(140,130,200,0)"/></radialGradient><radialGradient id="ng1"><stop offset="0%" stop-color="rgba(200,180,255,0.7)"/><stop offset="60%" stop-color="rgba(140,130,200,0.3)"/><stop offset="100%" stop-color="rgba(140,130,200,0)"/></radialGradient><radialGradient id="nd1"><stop offset="0%" stop-color="rgba(220,210,255,0.9)"/><stop offset="100%" stop-color="rgba(140,130,200,0)"/></radialGradient><radialGradient id="ng2"><stop offset="0%" stop-color="rgba(200,180,255,0.7)"/><stop offset="60%" stop-color="rgba(140,130,200,0.3)"/><stop offset="100%" stop-color="rgba(140,130,200,0)"/></radialGradient><radialGradient id="nd2"><stop offset="0%" stop-color="rgba(220,210,255,0.9)"/><stop offset="100%" stop-color="rgba(140,130,200,0)"/></radialGradient><radialGradient id="ng3"><stop offset="0%" stop-color="rgba(200,180,255,0.7)"/><stop offset="60%" stop-color="rgba(140,130,200,0.3)"/><stop offset="100%" stop-color="rgba(140,130,200,0)"/></radialGradient><radialGradient id="nd3"><stop offset="0%" stop-color="rgba(220,210,255,0.9)"/><stop offset="100%" stop-color="rgba(140,130,200,0)"/></radialGradient><radialGradient id="ng4"><stop offset="0%" stop-color="rgba(200,180,255,0.7)"/><stop offset="60%" stop-color="rgba(140,130,200,0.3)"/><stop offset="100%" stop-color="rgba(140,130,200,0)"/></radialGradient><radialGradient id="nd4"><stop offset="0%" stop-color="rgba(220,210,255,0.9)"/><stop offset="100%" stop-color="rgba(140,130,200,0)"/></radialGradient><radialGradient id="ambg"><stop offset="0%" stop-color="rgba(140,130,200,0.04)"/><stop offset="100%" stop-color="rgba(140,130,200,0)"/></radialGradient></defs></svg>