<svg xmlns="http://www.w3.org/2000/svg" viewBox="0 0 800 600"><rect width="800" height="600" fill="#0d0a1a"/><circle cx="400" cy="300" r="180" fill="url(#ag)"/><path d="M400,300 Q437,295 486,297" stroke="rgba(232,119,34,0.36)" stroke-width="2.5" fill="none" stroke-linecap="round"/><path d="M486,297 Q510,304 533,319" stroke="rgba(232,119,34,0.25)" stroke-width="1.5" fill="none" stroke-linecap="round"/><path d="M533,319 Q540,329 549,345" stroke="rgba(232,119,34,0.18)" stroke-width="0.9" fill="none" stroke-linecap="round"/><path d="M549,345 Q556,349 567,351" stroke="rgba(232,119,34,0.12)" stroke-width="0.5" fill="none" stroke-linecap="round"/><path d="M400,300 Q450,313 482,327" stroke="rgba(232,119,34,0.36)" stroke-width="2.5" fill="none" stroke-linecap="round"/><path d="M482,327 Q499,327 531,343" stroke="rgba(232,119,34,0.25)" stroke-width="1.5" fill="none" stroke-linecap="round"/><path d="M531,343 Q539,359 546,370" stroke="rgba(232,119,34,0.18)" stroke-width="0.9" fill="none" stroke-linecap="round"/><path d="M546,370 Q552,375 560,382" stroke="rgba(232,119,34,0.12)" stroke-width="0.5" fill="none" stroke-linecap="round"/><path d="M546,370 Q552,376 559,383" stroke="rgba(232,119,34,0.12)" stroke-width="0.5" fill="none" stroke-linecap="round"/><path d="M531,343 Q535,361 547,369" stroke="rgba(232,119,34,0.18)" stroke-width="0.9" fill="none" stroke-linecap="round"/><path d="M547,369 Q551,381 555,386" stroke="rgba(232,119,34,0.12)" stroke-width="0.5" fill="none" stroke-linecap="round"/><path d="M400,300 Q401,348 418,381" stroke="rgba(232,119,34,0.36)" stroke-width="2.5" fill="none" stroke-linecap="round"/><path d="M418,381 Q435,395 462,405" stroke="rgba(232,119,34,0.25)" stroke-width="1.5" fill="none" stroke-linecap="round"/><path d="M462,405 Q476,408 489,418" stroke="rgba(232,119,34,0.18)" stroke-width="0.9" fill="none" stroke-linecap="round"/><path d="M489,418 Q496,423 505,425" stroke="rgba(232,119,34,0.12)" stroke-width="0.5" fill="none" stroke-linecap="round"/><path d="M489,418 Q497,425 500,433" stroke="rgba(232,119,34,0.12)" stroke-width="0.5" fill="none" stroke-linecap="round"/><path d="M418,381 Q421,403 424,431" stroke="rgba(232,119,34,0.25)" stroke-width="1.5" fill="none" stroke-linecap="round"/><path d="M424,431 Q432,445 439,457" stroke="rgba(232,119,34,0.18)" stroke-width="0.9" fill="none" stroke-linecap="round"/><path d="M439,457 Q441,465 448,472" stroke="rgba(232,119,34,0.12)" stroke-width="0.5" fill="none" stroke-linecap="round"/><path d="M400,300 Q381,332 371,368" stroke="rgba(232,119,34,0.36)" stroke-width="2.5" fill="none" stroke-linecap="round"/><path d="M371,368 Q368,382 354,409" stroke="rgba(232,119,34,0.25)" stroke-width="1.5" fill="none" stroke-linecap="round"/><path d="M354,409 Q342,418 337,429" stroke="rgba(232,119,34,0.18)" stroke-width="0.9" fill="none" stroke-linecap="round"/><path d="M337,429 Q328,434 324,438" stroke="rgba(232,119,34,0.12)" stroke-width="0.5" fill="none" stroke-linecap="round"/><path d="M400,300 Q360,317 335,345" stroke="rgba(232,119,34,0.36)" stroke-width="2.5" fill="none" stroke-linecap="round"/><path d="M335,345 Q321,369 307,384" stroke="rgba(232,119,34,0.25)" stroke-width="1.5" fill="none" stroke-linecap="round"/><path d="M307,384 Q302,395 300,412" stroke="rgba(232,119,34,0.18)" stroke-width="0.9" fill="none" stroke-linecap="round"/><path d="M300,412 Q295,418 289,425" stroke="rgba(232,119,34,0.12)" stroke-width="0.5" fill="none" stroke-linecap="round"/><path d="M300,412 Q298,419 297,428" stroke="rgba(232,119,34,0.12)" stroke-width="0.5" fill="none" stroke-linecap="round"/><path d="M335,345 Q306,353 291,365" stroke="rgba(232,119,34,0.25)" stroke-width="1.5" fill="none" stroke-linecap="round"/><path d="M291,365 Q283,377 267,381" stroke="rgba(232,119,34,0.18)" stroke-width="0.9" fill="none" stroke-linecap="round"/><path d="M267,381 Q262,390 259,396" stroke="rgba(232,119,34,0.12)" stroke-width="0.5" fill="none" stroke-linecap="round"/><path d="M267,381 Q262,383 252,389" stroke="rgba(232,119,34,0.12)" stroke-width="0.5" fill="none" stroke-linecap="round"/><path d="M291,365 Q279,377 274,387" stroke="rgba(232,119,34,0.18)" stroke-width="0.9" fill="none" stroke-linecap="round"/><path d="M274,387 Q270,393 264,402" stroke="rgba(232,119,34,0.12)" stroke-width="0.5" fill="none" stroke-linecap="round"/><path d="M400,300 Q363,287 321,275" stroke="rgba(232,119,34,0.36)" stroke-width="2.5" fill="none" stroke-linecap="round"/><path d="M321,275 Q300,255 280,248" stroke="rgba(232,119,34,0.25)" stroke-width="1.5" fill="none" stroke-linecap="round"/><path d="M280,248 Q267,243 251,241" stroke="rgba(232,119,34,0.18)" stroke-width="0.9" fill="none" stroke-linecap="round"/><path d="M251,241 Q242,242 234,241" stroke="rgba(232,119,34,0.12)" stroke-width="0.5" fill="none" stroke-linecap="round"/><path d="M280,248 Q271,236 256,230" stroke="rgba(232,119,34,0.18)" stroke-width="0.9" fill="none" stroke-linecap="round"/><path d="M256,230 Q253,224 245,216" stroke="rgba(232,119,34,0.12)" stroke-width="0.5" fill="none" stroke-linecap="round"/><path d="M321,275 Q295,275 272,279" stroke="rgba(232,119,34,0.25)" stroke-width="1.5" fill="none" stroke-linecap="round"/><path d="M272,279 Q260,267 247,263" stroke="rgba(232,119,34,0.18)" stroke-width="0.9" fill="none" stroke-linecap="round"/><path d="M247,263 Q235,262 229,261" stroke="rgba(232,119,34,0.12)" stroke-width="0.5" fill="none" stroke-linecap="round"/><path d="M247,263 Q242,256 238,248" stroke="rgba(232,119,34,0.12)" stroke-width="0.5" fill="none" stroke-linecap="round"/><path d="M272,279 Q256,280 242,281" stroke="rgba(232,119,34,0.18)" stroke-width="0.9" fill="none" stroke-linecap="round"/><path d="M242,281 Q232,282 225,280" stroke="rgba(232,119,34,0.12)" stroke-width="0.5" fill="none" stroke-linecap="round"/><path d="M242,281 Q238,289 228,291" stroke="rgba(232,119,34,0.12)" stroke-width="0.5" fill="none" stroke-linecap="round"/><path d="M400,300 Q359,257 329,239" stroke="rgba(232,119,34,0.36)" stroke-width="2.5" fill="none" stroke-linecap="round"/><path d="M329,239 Q321,219 305,187" stroke="rgba(232,119,34,0.25)" stroke-width="1.5" fill="none" stroke-linecap="round"/><path d="M305,187 Q290,174 279,166" stroke="rgba(232,119,34,0.18)" stroke-width="0.9" fill="none" stroke-linecap="round"/><path d="M279,166 Q275,156 273,147" stroke="rgba(232,119,34,0.12)" stroke-width="0.5" fill="none" stroke-linecap="round"/><path d="M329,239 Q317,207 313,184" stroke="rgba(232,119,34,0.25)" stroke-width="1.5" fill="none" stroke-linecap="round"/><path d="M313,184 Q299,174 289,161" stroke="rgba(232,119,34,0.18)" stroke-width="0.9" fill="none" stroke-linecap="round"/><path d="M289,161 Q280,154 276,146" stroke="rgba(232,119,34,0.12)" stroke-width="0.5" fill="none" stroke-linecap="round"/><path d="M313,184 Q307,165 308,151" stroke="rgba(232,119,34,0.18)" stroke-width="0.9" fill="none" stroke-linecap="round"/><path d="M308,151 Q310,144 318,133" stroke="rgba(232,119,34,0.12)" stroke-width="0.5" fill="none" stroke-linecap="round"/><path d="M308,151 Q302,140 301,132" stroke="rgba(232,119,34,0.12)" stroke-width="0.5" fill="none" stroke-linecap="round"/><path d="M400,300 Q390,260 359,217" stroke="rgba(232,119,34,0.36)" stroke-width="2.5" fill="none" stroke-linecap="round"/><path d="M359,217 Q364,194 376,164" stroke="rgba(232,119,34,0.25)" stroke-width="1.5" fill="none" stroke-linecap="round"/><path d="M376,164 Q376,146 382,131" stroke="rgba(232,119,34,0.18)" stroke-width="0.9" fill="none" stroke-linecap="round"/><path d="M382,131 Q385,120 385,111" stroke="rgba(232,119,34,0.12)" stroke-width="0.5" fill="none" stroke-linecap="round"/><path d="M382,131 Q384,123 383,111" stroke="rgba(232,119,34,0.12)" stroke-width="0.5" fill="none" stroke-linecap="round"/><path d="M359,217 Q341,199 325,172" stroke="rgba(232,119,34,0.25)" stroke-width="1.5" fill="none" stroke-linecap="round"/><path d="M325,172 Q325,151 325,139" stroke="rgba(232,119,34,0.18)" stroke-width="0.9" fill="none" stroke-linecap="round"/><path d="M325,139 Q325,128 321,119" stroke="rgba(232,119,34,0.12)" stroke-width="0.5" fill="none" stroke-linecap="round"/><path d="M325,139 Q322,132 313,123" stroke="rgba(232,119,34,0.12)" stroke-width="0.5" fill="none" stroke-linecap="round"/><path d="M325,172 Q319,155 310,143" stroke="rgba(232,119,34,0.18)" stroke-width="0.9" fill="none" stroke-linecap="round"/><path d="M310,143 Q303,136 301,125" stroke="rgba(232,119,34,0.12)" stroke-width="0.5" fill="none" stroke-linecap="round"/><path d="M310,143 Q311,132 314,123" stroke="rgba(232,119,34,0.12)" stroke-width="0.5" fill="none" stroke-linecap="round"/><path d="M400,300 Q422,248 451,221" stroke="rgba(232,119,34,0.36)" stroke-width="2.5" fill="none" stroke-linecap="round"/><path d="M451,221 Q464,196 467,166" stroke="rgba(232,119,34,0.25)" stroke-width="1.5" fill="none" stroke-linecap="round"/><path d="M467,166 Q469,145 466,133" stroke="rgba(232,119,34,0.18)" stroke-width="0.9" fill="none" stroke-linecap="round"/><path d="M466,133 Q466,121 464,112" stroke="rgba(232,119,34,0.12)" stroke-width="0.5" fill="none" stroke-linecap="round"/><path d="M467,166 Q473,147 480,135" stroke="rgba(232,119,34,0.18)" stroke-width="0.9" fill="none" stroke-linecap="round"/><path d="M480,135 Q485,124 486,116" stroke="rgba(232,119,34,0.12)" stroke-width="0.5" fill="none" stroke-linecap="round"/><path d="M400,300 Q440,274 462,252" stroke="rgba(232,119,34,0.36)" stroke-width="2.5" fill="none" stroke-linecap="round"/><path d="M462,252 Q488,235 501,226" stroke="rgba(232,119,34,0.25)" stroke-width="1.5" fill="none" stroke-linecap="round"/><path d="M501,226 Q509,220 526,214" stroke="rgba(232,119,34,0.18)" stroke-width="0.9" fill="none" stroke-linecap="round"/><path d="M526,214 Q535,212 541,206" stroke="rgba(232,119,34,0.12)" stroke-width="0.5" fill="none" stroke-linecap="round"/><path d="M526,214 Q530,211 539,203" stroke="rgba(232,119,34,0.12)" stroke-width="0.5" fill="none" stroke-linecap="round"/><path d="M501,226 Q517,225 528,229" stroke="rgba(232,119,34,0.18)" stroke-width="0.9" fill="none" stroke-linecap="round"/><path d="M528,229 Q535,232 545,230" stroke="rgba(232,119,34,0.12)" stroke-width="0.5" fill="none" stroke-linecap="round"/><path d="M528,229 Q536,237 541,240" stroke="rgba(232,119,34,0.12)" stroke-width="0.5" fill="none" stroke-linecap="round"/><circle cx="400" cy="300" r="20" fill="url(#cg)"/><circle cx="400" cy="300" r="5" fill="url(#dg)"/><defs><radialGradient id="ag"><stop offset="0%" stop-color="rgba(232,119,34,0.06)"/><stop offset="100%" stop-color="rgba(232,119,34,0)"/></radialGradient><radialGradient id="cg"><stop offset="0%" stop-color="rgba(255,200,120,0.9)"/><stop offset="50%" stop-color="rgba(232,119,34,0.4)"/><stop offset="100%" stop-color="rgba(232,119,34,0)"/></radialGradient><radialGradient id="dg"><stop offset="0%" stop-color="rgba(255,230,180,1)"/><stop offset="100%" stop-color="rgba(232,119,34,0)"/></radialGradient></defs></svg>